<?xml version="1.0" encoding="UTF-8"?>
<svg version="1.1" xmlns="http://www.w3.org/2000/svg" width="50" height="50">
<path d="M0 0 C0.88022827 0.00404846 1.76045654 0.00809692 2.6673584 0.01226807 C4.0210553 0.00939789 4.0210553 0.00939789 5.40209961 0.00646973 C7.31197386 0.00510748 9.22185736 0.00880669 11.13171387 0.01715088 C14.0617749 0.02784986 16.99122278 0.01725696 19.92126465 0.00445557 C21.77413059 0.00577715 23.62699615 0.00833953 25.4798584 0.01226807 C26.80020081 0.00619537 26.80020081 0.00619537 28.1472168 0 C34.3436918 0.04797647 34.3436918 0.04797647 36.5736084 2.27789307 C36.83239746 5.04351807 36.83239746 5.04351807 36.8392334 8.52789307 C36.84310059 10.39961182 36.84310059 10.39961182 36.8470459 12.30914307 C36.83931152 13.61883057 36.83157715 14.92851807 36.8236084 16.27789307 C36.83520996 18.24242432 36.83520996 18.24242432 36.8470459 20.24664307 C36.84446777 21.49445557 36.84188965 22.74226807 36.8392334 24.02789307 C36.83697754 25.17773682 36.83472168 26.32758057 36.83239746 27.51226807 C36.5736084 30.27789307 36.5736084 30.27789307 34.5736084 32.27789307 C33.5836084 32.27789307 32.5936084 32.27789307 31.5736084 32.27789307 C32.07964832 30.10915055 32.57344653 28.2782168 33.5736084 26.27789307 C33.8379657 22.97142403 33.80509691 19.65626379 33.8236084 16.34039307 C33.8442334 15.42064697 33.8648584 14.50090088 33.8861084 13.55328369 C33.89126465 12.66963135 33.8964209 11.785979 33.9017334 10.87554932 C33.9110791 10.06609863 33.9204248 9.25664795 33.93005371 8.42266846 C33.70390044 6.25067111 33.70390044 6.25067111 32.51599121 4.51544189 C29.5559714 2.62952681 26.56703163 2.84983296 23.1673584 2.87945557 C22.08569397 2.8751503 22.08569397 2.8751503 20.98217773 2.87075806 C19.45909845 2.86871855 17.9359929 2.8742406 16.41296387 2.88677979 C14.08180162 2.90283663 11.75237298 2.88692897 9.42126465 2.86773682 C7.94079207 2.86971927 6.46032057 2.87356299 4.9798584 2.87945557 C4.2829187 2.87338287 3.585979 2.86731018 2.86791992 2.86105347 C0.05814409 2.90188261 -1.96599267 2.98370585 -4.36657715 4.51763916 C-5.71857647 6.76318515 -5.79938251 8.22455738 -5.78967285 10.84039307 C-5.78902832 11.71953369 -5.78838379 12.59867432 -5.78771973 13.50445557 C-5.77160645 14.41968994 -5.75549316 15.33492432 -5.7388916 16.27789307 C-5.74211426 17.19312744 -5.74533691 18.10836182 -5.74865723 19.05133057 C-5.80696817 24.48014109 -5.80696817 24.48014109 -3.4263916 29.27789307 C-3.4263916 30.26789307 -3.4263916 31.25789307 -3.4263916 32.27789307 C-7.3013916 31.40289307 -7.3013916 31.40289307 -8.4263916 30.27789307 C-8.6805471 25.63773981 -8.61161958 20.98668 -8.6138916 16.34039307 C-8.6261377 15.02619385 -8.63838379 13.71199463 -8.65100098 12.35797119 C-8.65390137 10.47948486 -8.65390137 10.47948486 -8.65686035 8.56304932 C-8.66096924 7.40684082 -8.66507813 6.25063232 -8.66931152 5.05938721 C-8.17770181 -0.56966748 -4.85863482 0.03761818 0 0 Z " fill="#FFFFFF" transform="translate(10.4263916015625,6.72210693359375)"/>
<path d="M0 0 C1.65 0 3.3 0 5 0 C5 9.57 5 19.14 5 29 C3.35 29 1.7 29 0 29 C0 19.43 0 9.86 0 0 Z " fill="#FFFFFF" transform="translate(34,15)"/>
<path d="M0 0 C1.65 0 3.3 0 5 0 C5 7.59 5 15.18 5 23 C3.35 23 1.7 23 0 23 C0 15.41 0 7.82 0 0 Z " fill="#FFFFFF" transform="translate(18,21)"/>
<path d="M0 0 C1.65 0 3.3 0 5 0 C5 6.27 5 12.54 5 19 C3.35 19 1.7 19 0 19 C0 12.73 0 6.46 0 0 Z " fill="#FFFFFF" transform="translate(26,25)"/>
<path d="M0 0 C1.65 0 3.3 0 5 0 C5 4.62 5 9.24 5 14 C3.35 14 1.7 14 0 14 C0 9.38 0 4.76 0 0 Z " fill="#FFFFFF" transform="translate(10,30)"/>
</svg>
