<?xml version="1.0" encoding="UTF-8"?>
<svg version="1.1" xmlns="http://www.w3.org/2000/svg" width="50" height="50">
<path d="M0 0 C3.37872471 0.66734817 5.97796388 1.96340251 8.96484375 3.66015625 C10.40428345 4.47468262 10.40428345 4.47468262 11.87280273 5.30566406 C12.88415283 5.88541992 13.89550293 6.46517578 14.9375 7.0625 C15.96625244 7.64870117 16.99500488 8.23490234 18.05493164 8.83886719 C34.55436352 18.27898928 34.55436352 18.27898928 40 22 C40 22.33 40 22.66 40 23 C29.11 23 18.22 23 7 23 C2.36206897 13.72413793 2.36206897 13.72413793 0.6875 9.25 C0.34074219 8.34765625 -0.00601563 7.4453125 -0.36328125 6.515625 C-1.03441414 3.86403246 -0.91926274 2.5383513 0 0 Z " fill="#FFFFFF" transform="translate(1,13)"/>
<path d="M0 0 C1.765625 0.15234375 1.765625 0.15234375 4 1 C5.921875 3.50390625 5.921875 3.50390625 7.75 6.5625 C8.67039062 8.08037109 8.67039062 8.08037109 9.609375 9.62890625 C10.06828125 10.41136719 10.5271875 11.19382812 11 12 C12.22976562 11.22462891 12.22976562 11.22462891 13.484375 10.43359375 C14.56203125 9.77488281 15.6396875 9.11617187 16.75 8.4375 C17.81734375 7.77621094 18.8846875 7.11492188 19.984375 6.43359375 C23 5 23 5 25.390625 5.28515625 C25.92171875 5.52105469 26.4528125 5.75695312 27 6 C25.55613874 13.21930632 23.42211826 20.05110733 21 27 C14.33758458 24.80232825 8.86148664 21.63462147 3 17.8125 C2.12988281 17.25369141 1.25976562 16.69488281 0.36328125 16.11914062 C-1.76223129 14.75273971 -3.88307131 13.37964691 -6 12 C-4.35442612 7.70816541 -2.32599824 3.95419701 0 0 Z M12 14 C13 16 13 16 13 16 Z M13 16 C14 18 14 18 14 18 Z M16 21 C17 23 17 23 17 23 Z " fill="#FFFFFF" transform="translate(23,8)"/>
</svg>
